<svg width="13" height="13" viewBox="0 0 13 13" fill="none" xmlns="http://www.w3.org/2000/svg"
          style="margin-right: 4px">
          <path
            d="M0.541626 11.7812C0.541626 12.4541 1.08752 13 1.76038 13H10.6979C11.3707 13 11.9166 12.4541 11.9166 11.7812V4.875H0.541626V11.7812ZM8.66663 6.80469C8.66663 6.63711 8.80374 6.5 8.97131 6.5H9.98694C10.1545 6.5 10.2916 6.63711 10.2916 6.80469V7.82031C10.2916 7.98789 10.1545 8.125 9.98694 8.125H8.97131C8.80374 8.125 8.66663 7.98789 8.66663 7.82031V6.80469ZM8.66663 10.0547C8.66663 9.88711 8.80374 9.75 8.97131 9.75H9.98694C10.1545 9.75 10.2916 9.88711 10.2916 10.0547V11.0703C10.2916 11.2379 10.1545 11.375 9.98694 11.375H8.97131C8.80374 11.375 8.66663 11.2379 8.66663 11.0703V10.0547ZM5.41663 6.80469C5.41663 6.63711 5.55374 6.5 5.72131 6.5H6.73694C6.90452 6.5 7.04163 6.63711 7.04163 6.80469V7.82031C7.04163 7.98789 6.90452 8.125 6.73694 8.125H5.72131C5.55374 8.125 5.41663 7.98789 5.41663 7.82031V6.80469ZM5.41663 10.0547C5.41663 9.88711 5.55374 9.75 5.72131 9.75H6.73694C6.90452 9.75 7.04163 9.88711 7.04163 10.0547V11.0703C7.04163 11.2379 6.90452 11.375 6.73694 11.375H5.72131C5.55374 11.375 5.41663 11.2379 5.41663 11.0703V10.0547ZM2.16663 6.80469C2.16663 6.63711 2.30374 6.5 2.47131 6.5H3.48694C3.65452 6.5 3.79163 6.63711 3.79163 6.80469V7.82031C3.79163 7.98789 3.65452 8.125 3.48694 8.125H2.47131C2.30374 8.125 2.16663 7.98789 2.16663 7.82031V6.80469ZM2.16663 10.0547C2.16663 9.88711 2.30374 9.75 2.47131 9.75H3.48694C3.65452 9.75 3.79163 9.88711 3.79163 10.0547V11.0703C3.79163 11.2379 3.65452 11.375 3.48694 11.375H2.47131C2.30374 11.375 2.16663 11.2379 2.16663 11.0703V10.0547ZM10.6979 1.625H9.47913V0.40625C9.47913 0.182812 9.29631 0 9.07288 0H8.26038C8.03694 0 7.85413 0.182812 7.85413 0.40625V1.625H4.60413V0.40625C4.60413 0.182812 4.42131 0 4.19788 0H3.38538C3.16194 0 2.97913 0.182812 2.97913 0.40625V1.625H1.76038C1.08752 1.625 0.541626 2.1709 0.541626 2.84375V4.0625H11.9166V2.84375C11.9166 2.1709 11.3707 1.625 10.6979 1.625Z"
            fill="black" />
        </svg>