<svg width="14" height="14" viewBox="0 0 14 14" fill="none" xmlns="http://www.w3.org/2000/svg">
<path fill-rule="evenodd" clip-rule="evenodd" d="M7 14C10.8661 14 14 10.8661 14 7C14 3.1339 10.8661 0 7 0C3.1339 0 0 3.1339 0 7C0 10.8661 3.1339 14 7 14ZM7.7 3.5C7.7 3.31435 7.62625 3.1363 7.49497 3.00503C7.3637 2.87375 7.18565 2.8 7 2.8C6.81435 2.8 6.6363 2.87375 6.50503 3.00503C6.37375 3.1363 6.3 3.31435 6.3 3.5V6.7102C6.30008 7.08147 6.44763 7.43751 6.7102 7.7L8.6051 9.5949C8.73712 9.72241 8.91394 9.79297 9.09748 9.79137C9.28102 9.78978 9.45659 9.71616 9.58637 9.58637C9.71616 9.45659 9.78978 9.28102 9.79137 9.09748C9.79297 8.91394 9.72241 8.73712 9.5949 8.6051L7.7 6.7102V3.5Z" fill="black"/>
</svg>
