<svg version="1.1" xmlns="http://www.w3.org/2000/svg" xmlns:xlink="http://www.w3.org/1999/xlink" width="48px" height="48px" viewBox="0,0,256,256"><defs><linearGradient x1="-5.385" y1="10.444" x2="66.913" y2="43.798" gradientUnits="userSpaceOnUse" id="color-1"><stop offset="0" stop-color="#33d7f0"></stop><stop offset="0.187" stop-color="#2fd1ed"></stop><stop offset="0.445" stop-color="#24bfe3"></stop><stop offset="0.744" stop-color="#13a2d4"></stop><stop offset="1" stop-color="#85d6ff"></stop></linearGradient><linearGradient x1="18.287" y1="12.6" x2="21.887" y2="24.489" gradientUnits="userSpaceOnUse" id="color-2"><stop offset="0" stop-color="#fed100"></stop><stop offset="1" stop-color="#e36001"></stop></linearGradient><linearGradient x1="13.734" y1="31.545" x2="21.96" y2="41.348" gradientUnits="userSpaceOnUse" id="color-3"><stop offset="0" stop-color="#fed100"></stop><stop offset="1" stop-color="#e36001"></stop></linearGradient><linearGradient x1="32.296" y1="11.874" x2="36.704" y2="17.126" gradientUnits="userSpaceOnUse" id="color-4"><stop offset="0" stop-color="#fed100"></stop><stop offset="1" stop-color="#e36001"></stop></linearGradient></defs><g fill="none" fill-rule="nonzero" stroke="none" stroke-width="1" stroke-linecap="butt" stroke-linejoin="miter" stroke-miterlimit="10" stroke-dasharray="" stroke-dashoffset="0" font-family="none" font-weight="none" font-size="none" text-anchor="none" style="mix-blend-mode: normal"><g transform="scale(5.33333,5.33333)"><path d="M43,8h-38c-1.105,0 -2,0.895 -2,2v28c0,1.105 0.895,2 2,2h38c1.105,0 2,-0.895 2,-2v-28c0,-1.105 -0.895,-2 -2,-2z" fill="url(#color-1)"></path><circle cx="16" cy="21" r="8" fill="#0370c8"></circle><path d="M16,20v-6.93c0,-0.599 0.525,-1.074 1.12,-1c1.974,0.248 3.823,1.145 5.244,2.566c1.421,1.421 2.318,3.27 2.566,5.244c0.075,0.595 -0.4,1.12 -1,1.12h-6.93c-0.552,0 -1,-0.448 -1,-1z" fill="url(#color-2)"></path><path d="M38.5,36h-14.5l-1,-1l1,-1h14.5c0.276,0 0.5,0.224 0.5,0.5v1c0,0.276 -0.224,0.5 -0.5,0.5z" fill="#0370c8"></path><path d="M24,34v2h-14.5c-0.276,0 -0.5,-0.224 -0.5,-0.5v-1c0,-0.276 0.224,-0.5 0.5,-0.5z" fill="url(#color-3)"></path><path d="M37.5,16h-6c-0.828,0 -1.5,-0.672 -1.5,-1.5v0c0,-0.828 0.672,-1.5 1.5,-1.5h6c0.828,0 1.5,0.672 1.5,1.5v0c0,0.828 -0.672,1.5 -1.5,1.5z" fill="url(#color-4)"></path><path d="M37.5,22h-6c-0.828,0 -1.5,-0.672 -1.5,-1.5v0c0,-0.828 0.672,-1.5 1.5,-1.5h6c0.828,0 1.5,0.672 1.5,1.5v0c0,0.828 -0.672,1.5 -1.5,1.5z" fill="#0370c8"></path><path d="M37.5,28h-6c-0.828,0 -1.5,-0.672 -1.5,-1.5v0c0,-0.828 0.672,-1.5 1.5,-1.5h6c0.828,0 1.5,0.672 1.5,1.5v0c0,0.828 -0.672,1.5 -1.5,1.5z" fill="#0370c8"></path></g></g></svg>