<svg width="14" height="14" viewBox="0 0 14 14" fill="none" xmlns="http://www.w3.org/2000/svg">
<path d="M7 9.5455C8.40581 9.5455 9.54545 8.40586 9.54545 7.00004C9.54545 5.59423 8.40581 4.45459 7 4.45459C5.59418 4.45459 4.45454 5.59423 4.45454 7.00004C4.45454 8.40586 5.59418 9.5455 7 9.5455Z" fill="black"/>
<path d="M13.3636 6.36364H13.3314C13.0318 3.36197 10.638 0.968164 7.63636 0.668627V0.636364C7.63636 0.284645 7.35172 0 7 0C6.64828 0 6.36364 0.284645 6.36364 0.636364V0.668627C3.36197 0.968164 0.968164 3.36197 0.668627 6.36364H0.636364C0.284645 6.36364 0 6.64828 0 7C0 7.35172 0.284645 7.63636 0.636364 7.63636H0.668627C0.968164 10.638 3.36197 13.0318 6.36364 13.3314V13.3636C6.36364 13.7154 6.64828 14 7 14C7.35172 14 7.63636 13.7154 7.63636 13.3636V13.3314C10.638 13.0318 13.0318 10.638 13.3314 7.63636H13.3636C13.7154 7.63636 14 7.35172 14 7C14 6.64828 13.7154 6.36364 13.3636 6.36364ZM11.4545 7.63636H12.0467C11.7582 9.93465 9.93459 11.7582 7.63636 12.0467V11.4545C7.63636 11.1028 7.35172 10.8182 7 10.8182C6.64828 10.8182 6.36364 11.1028 6.36364 11.4545V12.0467C4.06535 11.7582 2.24185 9.93465 1.95332 7.63636H2.54545C2.89717 7.63636 3.18182 7.35172 3.18182 7C3.18182 6.64828 2.89717 6.36364 2.54545 6.36364H1.95332C2.24185 4.06535 4.06535 2.24185 6.36364 1.95332V2.54545C6.36364 2.89717 6.64828 3.18182 7 3.18182C7.35172 3.18182 7.63636 2.89717 7.63636 2.54545V1.95332C9.93465 2.24185 11.7582 4.06541 12.0467 6.36364H11.4545C11.1028 6.36364 10.8182 6.64828 10.8182 7C10.8182 7.35172 11.1028 7.63636 11.4545 7.63636Z" fill="black"/>
</svg>
