<svg xmlns="http://www.w3.org/2000/svg" version="1.1" xmlns:xlink="http://www.w3.org/1999/xlink" width="512" height="512" x="0" y="0" viewBox="0 0 512 512" style="enable-background:new 0 0 512 512" xml:space="preserve" class=""><g><linearGradient id="a" x1="0" x2="512" y1="256" y2="256" gradientUnits="userSpaceOnUse"><stop stop-opacity="1" stop-color="#00d0ff" offset="0"></stop><stop stop-opacity="1" stop-color="#005fda" offset="1"></stop></linearGradient><path fill="url(#a)" d="M512 256c0 141.387-114.613 256-256 256S0 397.387 0 256 114.613 0 256 0s256 114.613 256 256zm0 0" opacity="1" data-original="url(#a)" class=""></path><g fill="#fff"><path d="M353.16 85.48H194.348c-22.809 0-41.36 18.555-41.36 41.36v54.539h30v-54.54c0-6.265 5.094-11.359 11.36-11.359H353.16c6.266 0 11.36 5.098 11.36 11.36v258.32c0 6.266-5.098 11.36-11.36 11.36H194.348c-6.266 0-11.36-5.098-11.36-11.36v-54.539h-30v54.54c0 22.804 18.551 41.359 41.36 41.359H353.16c22.805 0 41.36-18.555 41.36-41.36V126.84c0-22.805-18.555-41.36-41.36-41.36zm0 0" fill="#ffffff" opacity="1" data-original="#ffffff" class=""></path><path d="m192.902 299.492 21.215 21.215L278.82 256l-64.703-64.707-21.215 21.215L221.395 241H53.48v30h167.915zm0 0" fill="#ffffff" opacity="1" data-original="#ffffff" class=""></path></g></g></svg>