<svg width="14" height="10" viewBox="0 0 14 10" fill="none" xmlns="http://www.w3.org/2000/svg">
<path d="M4.55 5C5.90362 5 7 3.88125 7 2.5C7 1.11875 5.90362 0 4.55 0C3.19637 0 2.1 1.11875 2.1 2.5C2.1 3.88125 3.19637 5 4.55 5ZM12.25 3.75C12.25 4.83525 11.3885 5.71429 10.325 5.71429C9.26145 5.71429 8.4 4.83525 8.4 3.75C8.4 2.66471 9.26145 1.78571 10.325 1.78571C11.3885 1.78571 12.25 2.66471 12.25 3.75ZM4.55 5.71429C5.50676 5.71429 7.06405 6.01825 8.08539 6.62329C8.50255 7.05661 8.75 7.52907 8.75 8V10H0V8C0 6.48 3.03142 5.71429 4.55 5.71429ZM14 10H9.45V8C9.45 7.49418 9.27101 7.02861 8.98674 6.61307C9.52605 6.49018 10.057 6.42857 10.4624 6.42857C11.7674 6.42857 14 7.06668 14 8.33332V10Z" fill="black"/>
</svg>
