<svg xmlns="http://www.w3.org/2000/svg" version="1.1" xmlns:xlink="http://www.w3.org/1999/xlink" width="512" height="512" x="0" y="0" viewBox="0 0 512 512" style="enable-background:new 0 0 512 512" xml:space="preserve" class=""><g><linearGradient id="a" x1="74.98" x2="437.02" y1="74.98" y2="437.02" gradientUnits="userSpaceOnUse"><stop offset="0" stop-color="#0bcff4"></stop><stop offset="1" stop-color="#4d5ef3"></stop></linearGradient><g data-name="Layer 2"><g data-name="03.square_pen"><circle cx="256" cy="256" r="256" fill="url(#a)" opacity="1" data-original="url(#a)" class=""></circle><g fill="#fff"><path d="M318.52 299v55.3H155.66V191.44h61.6a19.83 19.83 0 0 0 19.83-19.83 19.83 19.83 0 0 0-19.83-19.83h-67.44A33.82 33.82 0 0 0 116 185.6v174.54A33.82 33.82 0 0 0 149.82 394h174.54a33.82 33.82 0 0 0 33.82-33.82V299a19.83 19.83 0 0 0-19.83-19.83A19.83 19.83 0 0 0 318.52 299z" fill="#ffffff" opacity="1" data-original="#ffffff"></path><path d="m358 208.89-.1-.1L305.13 156s-64.27 64.3-95.28 95.92a38.52 38.52 0 0 0-8.51 14.69c-5.09 15.55-9.3 31.39-14 47.07-1.26 4.21-1 7.92 2.29 11.06 3.11 3 6.61 3.1 10.64 1.89 15-4.48 30-8.76 45-13.05a46 46 0 0 0 20.3-12.26c29.58-29.66 92.43-92.43 92.43-92.43zM388.78 143.3l-18-18a24.67 24.67 0 0 0-34.88 0l-20.44 20.44 52.91 52.92 20.45-20.45a24.67 24.67 0 0 0-.04-34.91z" fill="#ffffff" opacity="1" data-original="#ffffff"></path></g></g></g></g></svg>