<svg width="13" height="13" viewBox="0 0 13 13" fill="none" xmlns="http://www.w3.org/2000/svg"
          style="margin-right: 4px">
          <path
            d="M9.54465 8.40386C10.3314 7.33018 10.6837 5.99901 10.5312 4.67666C10.3788 3.35431 9.73267 2.1383 8.72224 1.27192C7.71181 0.405535 6.41157 -0.0473322 5.08162 0.00391997C3.75168 0.0551722 2.49013 0.606764 1.54936 1.54834C0.608586 2.48992 0.0579748 3.75204 0.00768142 5.08221C-0.0426119 6.41237 0.411122 7.71248 1.27811 8.72243C2.14509 9.73238 3.36139 10.3777 4.68366 10.5292C6.00594 10.6808 7.33667 10.3274 8.40963 9.53985H8.40882C8.43319 9.57236 8.45919 9.60324 8.48844 9.6333L11.6164 12.7617C11.7688 12.9142 11.9755 12.9999 12.191 13C12.4065 13.0001 12.6132 12.9145 12.7657 12.7622C12.9181 12.6098 13.0038 12.4031 13.0039 12.1875C13.004 11.972 12.9184 11.7652 12.7661 11.6128L9.63809 8.48431C9.60904 8.4549 9.5778 8.42774 9.54465 8.40305V8.40386ZM9.75427 5.28029C9.75427 5.86719 9.63869 6.44835 9.41412 6.99058C9.18955 7.53281 8.8604 8.02549 8.44545 8.4405C8.03051 8.8555 7.53789 9.1847 6.99574 9.4093C6.45359 9.6339 5.87251 9.7495 5.28569 9.7495C4.69886 9.7495 4.11779 9.6339 3.57564 9.4093C3.03348 9.1847 2.54087 8.8555 2.12592 8.4405C1.71098 8.02549 1.38182 7.53281 1.15726 6.99058C0.932689 6.44835 0.817105 5.86719 0.817105 5.28029C0.817105 4.09498 1.2879 2.95822 2.12592 2.12008C2.96394 1.28194 4.10055 0.811078 5.28569 0.811078C6.47083 0.811078 7.60743 1.28194 8.44545 2.12008C9.28347 2.95822 9.75427 4.09498 9.75427 5.28029Z"
            fill="black" />
        </svg>