 <svg width="14" height="14" viewBox="0 0 13 11" fill="none" xmlns="http://www.w3.org/2000/svg"
          style="margin-right: 4px">
          <path
            d="M1.80784 6.24158V8.01318C1.80784 8.47342 2.05656 8.90213 2.4545 9.1228L5.56343 10.844C5.93651 11.052 6.38419 11.052 6.75726 10.844L9.8662 9.1228C10.2641 8.90213 10.5129 8.47342 10.5129 8.01318V6.24158L6.75726 8.32211C6.38419 8.53016 5.93651 8.53016 5.56343 8.32211L1.80784 6.24158ZM5.56343 0.151311L0.321774 3.05144C-0.107258 3.29102 -0.107258 3.92148 0.321774 4.16105L5.56343 7.06118C5.93651 7.26924 6.38419 7.26924 6.75726 7.06118L11.7564 4.29345V8.01949C11.7564 8.36624 12.0362 8.64995 12.3782 8.64995C12.7202 8.64995 13 8.36624 13 8.01949V3.97822C13 3.74495 12.8756 3.5369 12.6767 3.42341L6.75726 0.151311C6.38419 -0.050437 5.93651 -0.050437 5.56343 0.151311Z"
            fill="black" />
        </svg>