<?xml version="1.0" encoding="UTF-8"?>
<svg xmlns="http://www.w3.org/2000/svg" xmlns:xlink="http://www.w3.org/1999/xlink" width="64px" height="64px" viewBox="0 0 64 64" version="1.1">
<g id="surface1">
<path style=" stroke:none;fill-rule:evenodd;fill:rgb(51.764706%,73.72549%,36.078431%);fill-opacity:1;" d="M 5.183594 30.03125 C 5.183594 30.058594 5.125 30.078125 5.054688 30.078125 C 4.984375 30.078125 4.929688 30.109375 4.929688 30.144531 C 4.929688 30.179688 4.890625 30.207031 4.84375 30.207031 C 4.695312 30.207031 4.296875 30.628906 4.128906 30.960938 L 3.96875 31.28125 L 3.96875 52.742188 L 4.121094 53.046875 C 4.285156 53.371094 4.710938 53.824219 4.847656 53.824219 C 4.890625 53.824219 4.929688 53.851562 4.929688 53.886719 C 4.929688 53.921875 4.980469 53.953125 5.046875 53.953125 C 5.109375 53.953125 5.183594 53.972656 5.210938 54 C 5.289062 54.082031 49.761719 54.019531 50.207031 53.9375 C 51.085938 53.777344 51.625 53.316406 51.871094 52.511719 C 52.039062 51.953125 52.015625 31.804688 51.84375 31.355469 C 51.609375 30.734375 51.140625 30.289062 50.539062 30.121094 C 50.175781 30.015625 5.183594 29.929688 5.183594 30.03125 M 38.847656 36.453125 C 39.113281 36.472656 39.386719 36.511719 39.457031 36.539062 C 39.699219 36.636719 40.042969 36.734375 40.121094 36.734375 C 40.273438 36.734375 41.011719 37.128906 41.261719 37.34375 C 41.890625 37.878906 41.871094 38.585938 41.222656 39.023438 C 40.917969 39.226562 40.707031 39.207031 40.105469 38.917969 C 38.25 38.035156 36.503906 38.234375 36.125 39.371094 C 35.851562 40.1875 36.488281 40.789062 38.078125 41.226562 C 38.203125 41.257812 38.40625 41.316406 38.527344 41.351562 C 38.652344 41.390625 38.832031 41.433594 38.929688 41.453125 C 39.027344 41.472656 39.121094 41.511719 39.140625 41.542969 C 39.160156 41.574219 39.246094 41.601562 39.328125 41.601562 C 39.410156 41.601562 39.5 41.628906 39.519531 41.664062 C 39.542969 41.699219 39.628906 41.726562 39.710938 41.726562 C 39.796875 41.726562 39.882812 41.757812 39.902344 41.792969 C 39.925781 41.828125 39.988281 41.855469 40.042969 41.855469 C 40.582031 41.855469 41.859375 42.828125 42.171875 43.476562 C 43.378906 45.957031 40.957031 48.648438 37.785156 48.363281 C 35 48.109375 33.511719 47.207031 33.851562 45.976562 C 34.019531 45.363281 34.777344 45.03125 35.253906 45.367188 C 36.945312 46.5625 39.542969 46.597656 40.125 45.441406 C 40.664062 44.371094 40.109375 43.863281 37.632812 43.140625 C 34.863281 42.335938 33.984375 41.527344 33.984375 39.78125 C 33.984375 38.371094 34.722656 37.300781 36.03125 36.808594 C 36.15625 36.761719 36.3125 36.699219 36.382812 36.675781 C 36.75 36.535156 37 36.480469 37.285156 36.472656 C 37.457031 36.46875 37.6875 36.441406 37.792969 36.414062 C 37.898438 36.386719 38.070312 36.375 38.175781 36.390625 C 38.28125 36.40625 38.585938 36.433594 38.847656 36.453125 M 14.863281 36.945312 C 15.117188 37.089844 15.382812 37.398438 17.535156 40.089844 C 17.589844 40.15625 17.730469 40.324219 17.851562 40.460938 L 18.066406 40.710938 L 18.167969 40.558594 C 18.332031 40.320312 20.605469 37.496094 20.824219 37.257812 C 21.292969 36.753906 21.8125 36.738281 22.324219 37.207031 C 22.886719 37.71875 22.761719 38.226562 21.78125 39.390625 C 21.386719 39.863281 20.695312 40.710938 20.402344 41.089844 C 20.308594 41.210938 20.070312 41.511719 19.875 41.761719 C 19.679688 42.007812 19.519531 42.230469 19.519531 42.257812 C 19.519531 42.289062 20.226562 43.1875 21.085938 44.253906 C 23.125 46.785156 23.238281 47.015625 22.734375 47.597656 C 22.03125 48.40625 21.363281 48.132812 20.164062 46.535156 C 20.078125 46.421875 19.671875 45.902344 19.265625 45.386719 C 18.859375 44.867188 18.425781 44.308594 18.304688 44.144531 C 17.996094 43.734375 18.101562 43.640625 16.609375 45.644531 C 14.921875 47.90625 14.648438 48.179688 14.199219 48.039062 C 14.152344 48.023438 14.035156 47.992188 13.9375 47.972656 C 13.714844 47.925781 13.347656 47.601562 13.21875 47.347656 C 12.980469 46.867188 13.066406 46.691406 14.382812 45.035156 C 14.867188 44.421875 15.335938 43.828125 15.425781 43.710938 C 15.511719 43.59375 15.792969 43.238281 16.046875 42.917969 C 16.304688 42.597656 16.511719 42.304688 16.511719 42.265625 C 16.511719 42.207031 15.746094 41.226562 15.039062 40.382812 C 13.335938 38.351562 13.167969 38.03125 13.476562 37.433594 C 13.703125 36.996094 14.472656 36.722656 14.863281 36.945312 M 26.136719 37.023438 C 26.609375 37.25 26.589844 37.050781 26.625 41.695312 L 26.65625 45.855469 L 29.054688 45.886719 C 31.429688 45.917969 31.457031 45.921875 31.660156 46.066406 C 32.359375 46.5625 32.332031 47.507812 31.613281 47.875 C 31.222656 48.074219 25.46875 48.070312 25.128906 47.867188 C 24.640625 47.582031 24.675781 47.957031 24.652344 42.59375 C 24.632812 37.324219 24.628906 37.398438 25.011719 37.128906 C 25.402344 36.855469 25.71875 36.828125 26.136719 37.023438 "/>
<path style=" stroke:none;fill-rule:evenodd;fill:rgb(89.019608%,89.411765%,89.019608%);fill-opacity:1;" d="M 14.910156 0.0585938 C 14.824219 0.0859375 14.660156 0.128906 14.542969 0.15625 C 14.429688 0.183594 14.335938 0.234375 14.335938 0.265625 C 14.335938 0.292969 14.277344 0.320312 14.207031 0.320312 C 14.136719 0.320312 14.078125 0.347656 14.078125 0.382812 C 14.078125 0.417969 14.023438 0.449219 13.953125 0.449219 C 13.882812 0.449219 13.824219 0.476562 13.824219 0.511719 C 13.824219 0.546875 13.796875 0.574219 13.761719 0.574219 C 13.617188 0.574219 12.898438 1.269531 12.617188 1.679688 C 12.503906 1.847656 12.425781 1.984375 12.449219 1.984375 C 12.472656 1.984375 12.429688 2.058594 12.355469 2.152344 C 12.285156 2.246094 12.222656 2.375 12.222656 2.4375 C 12.222656 2.5 12.195312 2.570312 12.160156 2.59375 C 12.125 2.613281 12.097656 2.714844 12.097656 2.816406 C 12.097656 2.917969 12.066406 3.019531 12.03125 3.039062 C 11.988281 3.066406 11.96875 7.628906 11.96875 16.515625 L 11.96875 29.953125 L 31.234375 29.953125 C 42.253906 29.953125 50.546875 29.976562 50.609375 30.007812 C 50.667969 30.039062 50.804688 30.105469 50.910156 30.152344 C 51.273438 30.320312 51.664062 30.699219 51.816406 31.039062 C 51.855469 31.128906 51.921875 31.273438 51.960938 31.359375 C 52.015625 31.480469 52.03125 34.40625 52.015625 42.976562 L 52 54.433594 L 51.832031 54.792969 C 51.738281 54.992188 51.539062 55.273438 51.390625 55.417969 C 51.136719 55.664062 51.03125 55.726562 50.539062 55.925781 C 50.410156 55.980469 45.394531 56 31.164062 56 L 11.96875 56 L 11.96875 58.460938 C 11.96875 60.03125 11.992188 60.933594 12.03125 60.960938 C 12.066406 60.980469 12.097656 61.082031 12.097656 61.183594 C 12.097656 61.285156 12.125 61.386719 12.160156 61.40625 C 12.195312 61.429688 12.222656 61.5 12.222656 61.5625 C 12.222656 61.625 12.285156 61.753906 12.355469 61.847656 C 12.429688 61.941406 12.472656 62.015625 12.449219 62.015625 C 12.277344 62.015625 13.269531 63.125 13.632812 63.339844 C 13.738281 63.402344 13.824219 63.472656 13.824219 63.5 C 13.824219 63.53125 13.882812 63.550781 13.953125 63.550781 C 14.023438 63.550781 14.078125 63.582031 14.078125 63.617188 C 14.078125 63.652344 14.136719 63.679688 14.207031 63.679688 C 14.277344 63.679688 14.335938 63.703125 14.335938 63.730469 C 14.335938 63.96875 14.101562 63.96875 36 63.96875 C 57.898438 63.96875 57.664062 63.96875 57.664062 63.730469 C 57.664062 63.703125 57.722656 63.679688 57.792969 63.679688 C 57.863281 63.679688 57.921875 63.652344 57.921875 63.617188 C 57.921875 63.582031 57.976562 63.550781 58.046875 63.550781 C 58.117188 63.550781 58.175781 63.523438 58.175781 63.488281 C 58.175781 63.453125 58.203125 63.425781 58.238281 63.425781 C 58.382812 63.425781 59.101562 62.730469 59.382812 62.320312 C 59.496094 62.152344 59.574219 62.015625 59.550781 62.015625 C 59.527344 62.015625 59.570312 61.941406 59.644531 61.847656 C 59.714844 61.753906 59.777344 61.625 59.777344 61.5625 C 59.777344 61.5 59.804688 61.429688 59.839844 61.40625 C 59.875 61.386719 59.902344 61.285156 59.902344 61.183594 C 59.902344 61.082031 59.933594 60.980469 59.96875 60.960938 C 60.011719 60.933594 60.027344 55.375 60.023438 44.460938 L 60.011719 28 L 48.027344 16.0625 L 47.550781 16.003906 C 46.179688 15.835938 45.097656 15.09375 44.425781 13.867188 C 44.316406 13.664062 44.222656 13.453125 44.222656 13.402344 C 44.222656 13.351562 44.199219 13.261719 44.167969 13.199219 C 43.976562 12.820312 43.96875 12.539062 43.96875 6.316406 L 43.96875 0 L 29.519531 0.0078125 C 21.574219 0.0117188 15 0.0351562 14.910156 0.0585938 M 37.839844 36.527344 C 38.007812 36.539062 38.28125 36.539062 38.449219 36.527344 C 38.613281 36.515625 38.476562 36.503906 38.144531 36.503906 C 37.808594 36.503906 37.671875 36.515625 37.839844 36.527344 M 36.863281 36.609375 C 36.738281 36.648438 36.730469 36.660156 36.832031 36.660156 C 36.902344 36.660156 37.03125 36.636719 37.121094 36.609375 C 37.246094 36.566406 37.253906 36.558594 37.152344 36.558594 C 37.082031 36.558594 36.953125 36.578125 36.863281 36.609375 M 39.230469 36.609375 C 39.285156 36.640625 39.386719 36.667969 39.457031 36.667969 L 39.585938 36.664062 L 39.457031 36.609375 C 39.265625 36.527344 39.105469 36.527344 39.230469 36.609375 M 14.03125 37.023438 C 13.917969 37.074219 13.824219 37.132812 13.824219 37.152344 C 13.824219 37.175781 13.855469 37.171875 13.898438 37.144531 C 13.9375 37.121094 14.089844 37.0625 14.234375 37.019531 C 14.378906 36.972656 14.4375 36.9375 14.367188 36.933594 C 14.296875 36.933594 14.144531 36.972656 14.03125 37.023438 M 14.761719 37.023438 C 14.871094 37.074219 15.109375 37.28125 15.296875 37.484375 C 15.480469 37.6875 15.570312 37.769531 15.5 37.664062 C 15.300781 37.371094 14.898438 37.011719 14.71875 36.96875 C 14.597656 36.9375 14.605469 36.949219 14.761719 37.023438 M 21.445312 36.953125 C 21.460938 36.964844 21.585938 36.992188 21.726562 37.015625 C 21.90625 37.042969 21.945312 37.035156 21.855469 36.996094 C 21.734375 36.9375 21.390625 36.902344 21.445312 36.953125 M 25.496094 36.980469 C 25.386719 36.988281 25.203125 37.085938 25.082031 37.191406 L 24.863281 37.386719 L 25.097656 37.21875 C 25.410156 36.996094 25.882812 36.980469 26.1875 37.183594 L 26.398438 37.324219 L 26.214844 37.164062 C 26.019531 36.996094 25.828125 36.945312 25.496094 36.980469 M 21.050781 37.117188 C 20.890625 37.238281 20.25 38.015625 20.308594 38.015625 C 20.328125 38.015625 20.488281 37.832031 20.664062 37.609375 C 20.84375 37.382812 21.082031 37.15625 21.199219 37.097656 C 21.3125 37.042969 21.363281 36.996094 21.3125 36.996094 C 21.257812 36.996094 21.140625 37.050781 21.050781 37.117188 M 35.210938 37.347656 C 34.800781 37.652344 34.433594 38.101562 34.269531 38.488281 C 34.125 38.835938 34.203125 38.765625 34.394531 38.378906 C 34.578125 37.996094 35 37.53125 35.390625 37.273438 C 35.625 37.117188 35.691406 37.054688 35.621094 37.054688 C 35.609375 37.054688 35.421875 37.1875 35.210938 37.347656 M 40.800781 37.152344 C 40.871094 37.210938 40.984375 37.285156 41.054688 37.320312 L 41.183594 37.382812 L 41.054688 37.277344 C 40.984375 37.222656 40.871094 37.144531 40.800781 37.113281 L 40.671875 37.050781 L 40.800781 37.152344 M 26.546875 41.746094 C 26.558594 44.59375 26.585938 45.875 26.632812 45.933594 C 26.691406 46 27.15625 46.011719 28.953125 46 L 31.199219 45.988281 L 28.929688 45.953125 L 26.65625 45.921875 L 26.625 41.8125 C 26.605469 39.554688 26.578125 37.691406 26.558594 37.675781 C 26.542969 37.65625 26.535156 39.488281 26.546875 41.746094 M 24.734375 42.464844 C 24.734375 45.070312 24.742188 46.125 24.753906 44.8125 C 24.761719 43.496094 24.761719 41.367188 24.753906 40.074219 C 24.742188 38.785156 24.734375 39.859375 24.734375 42.464844 M 15.679688 37.917969 C 15.679688 37.941406 15.808594 38.121094 15.96875 38.3125 C 16.125 38.507812 16.257812 38.648438 16.257812 38.625 C 16.257812 38.601562 16.125 38.425781 15.96875 38.230469 C 15.808594 38.035156 15.679688 37.894531 15.679688 37.917969 M 37.554688 38.261719 C 37.496094 38.285156 37.695312 38.304688 38 38.308594 C 38.308594 38.3125 38.496094 38.292969 38.425781 38.265625 C 38.273438 38.207031 37.703125 38.203125 37.554688 38.261719 M 13.601562 38.464844 C 13.65625 38.570312 13.714844 38.65625 13.730469 38.65625 C 13.75 38.65625 13.71875 38.570312 13.664062 38.464844 C 13.609375 38.359375 13.550781 38.273438 13.53125 38.273438 C 13.515625 38.273438 13.546875 38.359375 13.601562 38.464844 M 38.789062 38.359375 C 38.804688 38.371094 38.902344 38.402344 39.007812 38.425781 C 39.148438 38.457031 39.175781 38.449219 39.105469 38.402344 C 39.019531 38.34375 38.726562 38.304688 38.789062 38.359375 M 36.523438 38.625 C 36.425781 38.714844 36.367188 38.78125 36.394531 38.78125 C 36.472656 38.777344 36.84375 38.464844 36.769531 38.464844 C 36.734375 38.46875 36.625 38.539062 36.523438 38.625 M 41.378906 38.769531 C 41.242188 38.945312 41.230469 38.972656 41.339844 38.878906 C 41.464844 38.769531 41.636719 38.527344 41.585938 38.527344 C 41.574219 38.527344 41.484375 38.636719 41.378906 38.769531 M 22.199219 38.703125 C 21.996094 38.949219 21.921875 39.0625 21.996094 39.019531 C 22.078125 38.96875 22.363281 38.59375 22.316406 38.59375 C 22.304688 38.59375 22.25 38.640625 22.199219 38.703125 M 13.824219 38.75 C 13.824219 38.773438 13.882812 38.867188 13.953125 38.957031 C 14.023438 39.046875 14.078125 39.101562 14.078125 39.074219 C 14.078125 39.050781 14.023438 38.953125 13.953125 38.867188 C 13.882812 38.777344 13.824219 38.722656 13.824219 38.75 M 34.121094 38.890625 C 34.117188 38.96875 34.09375 39.082031 34.074219 39.148438 C 34.039062 39.257812 34.042969 39.257812 34.113281 39.148438 C 34.152344 39.085938 34.171875 38.972656 34.15625 38.894531 C 34.128906 38.753906 34.128906 38.753906 34.121094 38.890625 M 16.582031 39.078125 C 16.667969 39.1875 16.75 39.269531 16.765625 39.253906 C 16.78125 39.238281 16.710938 39.148438 16.609375 39.054688 L 16.425781 38.878906 L 16.582031 39.078125 M 40.554688 39.054688 C 40.59375 39.117188 40.90625 39.117188 41 39.054688 C 41.042969 39.027344 40.953125 39.007812 40.800781 39.007812 C 40.648438 39.007812 40.539062 39.03125 40.554688 39.054688 M 36.011719 39.273438 C 35.988281 39.296875 35.96875 39.378906 35.972656 39.449219 C 35.976562 39.574219 35.980469 39.570312 36.039062 39.429688 C 36.101562 39.273438 36.085938 39.199219 36.011719 39.273438 M 21.304688 39.792969 C 20.761719 40.449219 20.714844 40.511719 20.753906 40.511719 C 20.769531 40.511719 20.953125 40.304688 21.160156 40.050781 C 21.738281 39.339844 21.769531 39.296875 21.742188 39.296875 C 21.726562 39.296875 21.53125 39.519531 21.304688 39.792969 M 16.949219 39.519531 C 17.183594 39.847656 17.277344 39.960938 17.304688 39.929688 C 17.320312 39.917969 17.214844 39.773438 17.074219 39.617188 C 16.929688 39.457031 16.875 39.414062 16.949219 39.519531 M 18.460938 40.289062 C 18.328125 40.449219 18.234375 40.589844 18.246094 40.601562 C 18.261719 40.613281 18.382812 40.484375 18.515625 40.3125 C 18.824219 39.917969 18.777344 39.898438 18.460938 40.289062 M 34.089844 40.449219 C 34.140625 40.722656 34.175781 40.777344 34.175781 40.570312 C 34.175781 40.484375 34.144531 40.371094 34.109375 40.320312 C 34.066406 40.253906 34.058594 40.289062 34.089844 40.449219 M 36.167969 40.367188 C 36.289062 40.519531 36.363281 40.589844 36.511719 40.699219 C 36.582031 40.753906 36.527344 40.671875 36.386719 40.523438 C 36.128906 40.25 36.007812 40.164062 36.167969 40.367188 M 15.402344 40.734375 C 15.667969 41.054688 15.761719 41.121094 15.558594 40.847656 C 15.308594 40.515625 15.25 40.449219 15.207031 40.449219 C 15.179688 40.449219 15.269531 40.578125 15.402344 40.734375 M 15.742188 41.113281 C 15.742188 41.136719 15.875 41.3125 16.03125 41.507812 C 16.191406 41.703125 16.320312 41.839844 16.320312 41.8125 C 16.316406 41.75 15.742188 41.058594 15.742188 41.113281 M 34.496094 41.382812 C 34.496094 41.417969 34.632812 41.574219 34.800781 41.730469 L 35.105469 42.015625 L 34.816406 41.695312 C 34.65625 41.523438 34.519531 41.367188 34.511719 41.351562 C 34.503906 41.335938 34.496094 41.351562 34.496094 41.382812 M 41.023438 42.429688 C 41.253906 42.578125 41.539062 42.792969 41.664062 42.902344 C 41.871094 43.089844 41.875 43.089844 41.726562 42.921875 C 41.558594 42.730469 40.914062 42.265625 40.722656 42.199219 C 40.660156 42.175781 40.796875 42.28125 41.023438 42.429688 M 16.375 42.609375 C 16.191406 42.832031 16.113281 42.945312 16.144531 42.945312 C 16.164062 42.945312 16.253906 42.84375 16.347656 42.71875 C 16.523438 42.492188 16.542969 42.40625 16.375 42.609375 M 15.824219 43.300781 C 15.710938 43.453125 15.617188 43.597656 15.617188 43.621094 C 15.617188 43.648438 15.71875 43.53125 15.847656 43.363281 C 15.972656 43.199219 16.066406 43.054688 16.054688 43.042969 C 16.042969 43.03125 15.9375 43.148438 15.824219 43.300781 M 15.300781 43.960938 C 15.191406 44.097656 15.105469 44.230469 15.105469 44.253906 C 15.105469 44.292969 15.234375 44.144531 15.480469 43.824219 C 15.527344 43.761719 15.550781 43.710938 15.535156 43.710938 C 15.515625 43.710938 15.410156 43.824219 15.300781 43.960938 M 17.808594 43.839844 C 17.761719 43.910156 17.753906 43.96875 17.785156 43.96875 C 17.816406 43.96875 17.859375 43.925781 17.878906 43.871094 C 17.9375 43.71875 18.066406 43.757812 18.265625 43.984375 L 18.449219 44.191406 L 18.289062 43.96875 C 18.101562 43.703125 17.921875 43.65625 17.808594 43.839844 M 42.28125 44.128906 C 42.332031 44.445312 42.367188 44.5 42.367188 44.25 C 42.367188 44.148438 42.339844 44.019531 42.304688 43.96875 C 42.261719 43.902344 42.257812 43.953125 42.28125 44.128906 M 40.039062 44.097656 C 40.113281 44.183594 40.222656 44.34375 40.277344 44.449219 C 40.332031 44.554688 40.378906 44.617188 40.382812 44.589844 C 40.386719 44.484375 40.199219 44.1875 40.054688 44.0625 L 39.902344 43.9375 L 40.039062 44.097656 M 17.421875 44.351562 C 17.378906 44.421875 17.363281 44.480469 17.390625 44.480469 C 17.417969 44.480469 17.476562 44.421875 17.519531 44.351562 C 17.566406 44.28125 17.578125 44.222656 17.550781 44.222656 C 17.523438 44.222656 17.46875 44.28125 17.421875 44.351562 M 18.496094 44.25 C 18.496094 44.273438 18.597656 44.425781 18.71875 44.589844 C 18.84375 44.75 18.945312 44.863281 18.945312 44.835938 C 18.945312 44.8125 18.84375 44.660156 18.71875 44.5 C 18.597656 44.335938 18.496094 44.226562 18.496094 44.25 M 19.132812 45.117188 C 19.210938 45.222656 19.300781 45.328125 19.34375 45.351562 C 19.382812 45.378906 19.335938 45.292969 19.234375 45.164062 C 19.023438 44.882812 18.941406 44.847656 19.132812 45.117188 M 42.3125 45.324219 C 42.308594 45.417969 42.289062 45.546875 42.265625 45.609375 C 42.230469 45.722656 42.234375 45.722656 42.304688 45.613281 C 42.34375 45.550781 42.363281 45.421875 42.351562 45.328125 L 42.324219 45.152344 L 42.3125 45.324219 M 16.5625 45.507812 C 16.332031 45.835938 16.378906 45.832031 16.640625 45.503906 C 16.75 45.363281 16.820312 45.25 16.789062 45.25 C 16.761719 45.25 16.65625 45.367188 16.5625 45.507812 M 34.945312 45.359375 C 34.996094 45.378906 35.097656 45.417969 35.167969 45.453125 C 35.292969 45.511719 35.292969 45.507812 35.171875 45.410156 C 35.101562 45.355469 35.003906 45.3125 34.949219 45.316406 C 34.863281 45.320312 34.859375 45.328125 34.945312 45.359375 M 34.085938 45.636719 C 33.921875 45.832031 33.863281 45.996094 33.984375 45.921875 C 34.019531 45.898438 34.046875 45.847656 34.046875 45.808594 C 34.046875 45.769531 34.109375 45.667969 34.1875 45.589844 C 34.265625 45.507812 34.308594 45.441406 34.289062 45.441406 C 34.269531 45.441406 34.175781 45.527344 34.085938 45.636719 M 40.152344 45.519531 C 39.933594 45.894531 39.917969 45.925781 40.03125 45.792969 C 40.160156 45.636719 40.273438 45.441406 40.230469 45.441406 C 40.214844 45.441406 40.179688 45.476562 40.152344 45.519531 M 13.648438 46.0625 C 13.453125 46.316406 13.308594 46.546875 13.417969 46.433594 C 13.546875 46.300781 13.898438 45.824219 13.867188 45.824219 C 13.847656 45.824219 13.75 45.933594 13.648438 46.0625 M 16.15625 46.058594 C 16.058594 46.1875 16.007812 46.273438 16.050781 46.25 C 16.132812 46.199219 16.410156 45.824219 16.363281 45.824219 C 16.347656 45.824219 16.253906 45.929688 16.15625 46.058594 M 33.875 46.273438 C 33.875 46.429688 33.886719 46.496094 33.902344 46.414062 C 33.917969 46.335938 33.917969 46.207031 33.902344 46.128906 C 33.886719 46.046875 33.875 46.113281 33.875 46.273438 M 31.816406 46.300781 C 31.871094 46.371094 31.949219 46.488281 31.988281 46.558594 C 32.027344 46.628906 32.0625 46.652344 32.0625 46.609375 C 32.0625 46.566406 31.984375 46.449219 31.886719 46.351562 C 31.792969 46.25 31.757812 46.230469 31.816406 46.300781 M 37.410156 46.339844 C 37.429688 46.371094 37.550781 46.398438 37.679688 46.398438 C 37.960938 46.398438 37.9375 46.367188 37.613281 46.316406 C 37.46875 46.292969 37.386719 46.304688 37.410156 46.339844 M 38.785156 46.335938 C 38.5625 46.382812 38.5625 46.382812 38.753906 46.390625 C 38.859375 46.394531 38.988281 46.371094 39.039062 46.335938 C 39.148438 46.265625 39.109375 46.265625 38.785156 46.335938 M 15.773438 46.570312 C 15.671875 46.699219 15.625 46.785156 15.664062 46.761719 C 15.746094 46.710938 16.023438 46.335938 15.980469 46.335938 C 15.964844 46.335938 15.871094 46.441406 15.773438 46.570312 M 32.074219 46.933594 C 32.0625 47.203125 31.988281 47.375 31.785156 47.617188 L 31.648438 47.777344 L 31.820312 47.625 C 32.039062 47.429688 32.144531 47.171875 32.109375 46.902344 L 32.085938 46.6875 L 32.074219 46.933594 M 15.386719 47.082031 C 15.289062 47.210938 15.242188 47.296875 15.28125 47.273438 C 15.363281 47.222656 15.640625 46.847656 15.597656 46.847656 C 15.582031 46.847656 15.488281 46.953125 15.386719 47.082031 M 20.734375 47.15625 C 20.734375 47.253906 21.402344 47.871094 21.5 47.867188 C 21.570312 47.863281 21.5625 47.847656 21.472656 47.8125 C 21.402344 47.78125 21.207031 47.613281 21.039062 47.433594 C 20.871094 47.253906 20.734375 47.132812 20.734375 47.15625 M 34.261719 47.152344 C 34.289062 47.191406 34.398438 47.289062 34.507812 47.371094 C 34.621094 47.449219 34.691406 47.480469 34.664062 47.441406 C 34.640625 47.398438 34.53125 47.300781 34.417969 47.222656 C 34.308594 47.144531 34.238281 47.113281 34.261719 47.152344 M 13.253906 47.242188 C 13.242188 47.535156 13.894531 48.007812 14.285156 47.992188 C 14.488281 47.984375 14.488281 47.980469 14.238281 47.941406 C 13.785156 47.863281 13.453125 47.628906 13.320312 47.292969 C 13.277344 47.191406 13.253906 47.171875 13.253906 47.242188 M 41 47.429688 C 40.859375 47.53125 40.777344 47.617188 40.808594 47.617188 C 40.84375 47.617188 40.96875 47.53125 41.089844 47.425781 C 41.375 47.183594 41.320312 47.183594 41 47.429688 M 24.769531 47.417969 C 24.769531 47.476562 25.207031 47.902344 25.230469 47.867188 C 25.242188 47.851562 25.140625 47.734375 25.007812 47.605469 C 24.875 47.476562 24.769531 47.394531 24.769531 47.417969 M 22.621094 47.558594 C 22.597656 47.59375 22.488281 47.679688 22.378906 47.75 C 22.265625 47.816406 22.210938 47.871094 22.253906 47.871094 C 22.335938 47.871094 22.785156 47.492188 22.707031 47.488281 C 22.683594 47.488281 22.644531 47.519531 22.621094 47.558594 M 14.828125 47.714844 C 14.59375 47.921875 14.675781 47.917969 14.921875 47.710938 C 15.027344 47.625 15.089844 47.554688 15.0625 47.554688 C 15.03125 47.554688 14.925781 47.628906 14.828125 47.714844 M 40.449219 47.742188 C 40.324219 47.8125 40.246094 47.867188 40.273438 47.871094 C 40.34375 47.871094 40.703125 47.683594 40.703125 47.644531 C 40.703125 47.605469 40.699219 47.605469 40.449219 47.742188 M 21.742188 47.917969 C 21.824219 47.933594 21.953125 47.933594 22.03125 47.917969 C 22.109375 47.902344 22.046875 47.890625 21.886719 47.890625 C 21.730469 47.890625 21.664062 47.902344 21.742188 47.917969 M 39.902344 47.96875 C 39.742188 48.046875 39.738281 48.054688 39.871094 48.023438 C 40.054688 47.980469 40.257812 47.875 40.160156 47.875 C 40.125 47.878906 40.007812 47.917969 39.902344 47.96875 M 26.964844 47.984375 C 27.730469 47.996094 28.972656 47.992188 29.714844 47.984375 C 30.460938 47.972656 29.832031 47.964844 28.320312 47.964844 C 26.804688 47.964844 26.195312 47.972656 26.964844 47.984375 M 39.265625 48.132812 C 39.175781 48.171875 39.214844 48.175781 39.390625 48.148438 C 39.53125 48.128906 39.660156 48.101562 39.675781 48.085938 C 39.730469 48.039062 39.386719 48.074219 39.265625 48.132812 M 37.136719 48.238281 C 37.234375 48.253906 37.390625 48.253906 37.488281 48.238281 C 37.585938 48.222656 37.503906 48.210938 37.3125 48.210938 C 37.117188 48.210938 37.039062 48.222656 37.136719 48.238281 M 38.609375 48.238281 C 38.703125 48.253906 38.863281 48.253906 38.960938 48.238281 C 39.058594 48.222656 38.976562 48.210938 38.785156 48.210938 C 38.589844 48.210938 38.511719 48.222656 38.609375 48.238281 M 37.839844 48.300781 C 37.9375 48.316406 38.09375 48.316406 38.191406 48.300781 C 38.289062 48.289062 38.210938 48.273438 38.015625 48.273438 C 37.824219 48.273438 37.742188 48.289062 37.839844 48.300781 "/>
<path style=" stroke:none;fill-rule:evenodd;fill:rgb(70.588235%,70.588235%,73.333333%);fill-opacity:1;" d="M 44.046875 6.382812 L 44.0625 12.703125 L 44.242188 13.199219 C 44.5 13.925781 44.925781 14.585938 45.359375 14.933594 C 45.4375 14.996094 45.546875 15.089844 45.597656 15.140625 C 45.914062 15.460938 46.652344 15.753906 47.519531 15.90625 C 48.308594 16.046875 59.902344 16.042969 59.902344 15.902344 C 59.902344 15.851562 59.875 15.808594 59.835938 15.808594 C 59.800781 15.808594 59.777344 15.757812 59.789062 15.695312 C 59.800781 15.621094 59.761719 15.578125 59.667969 15.5625 C 59.570312 15.550781 59.539062 15.515625 59.566406 15.441406 C 59.59375 15.375 59.582031 15.355469 59.53125 15.386719 C 59.484375 15.414062 59.457031 15.390625 59.457031 15.320312 C 59.457031 15.261719 59.4375 15.226562 59.417969 15.25 C 59.371094 15.296875 59.199219 15.140625 59.199219 15.054688 C 59.199219 14.964844 58.972656 14.777344 58.921875 14.828125 C 58.898438 14.851562 58.878906 14.835938 58.878906 14.792969 C 58.878906 14.753906 58.835938 14.71875 58.785156 14.71875 C 58.726562 14.71875 58.6875 14.660156 58.6875 14.574219 C 58.6875 14.496094 58.664062 14.460938 58.640625 14.5 C 58.609375 14.542969 58.359375 14.335938 58.003906 13.976562 C 57.667969 13.636719 57.449219 13.371094 57.492188 13.351562 C 57.535156 13.335938 57.503906 13.320312 57.425781 13.316406 C 57.339844 13.3125 57.28125 13.269531 57.28125 13.214844 C 57.28125 13.164062 57.246094 13.121094 57.207031 13.121094 C 57.164062 13.121094 57.148438 13.101562 57.171875 13.078125 C 57.222656 13.027344 57.035156 12.800781 56.945312 12.800781 C 56.859375 12.800781 56.703125 12.628906 56.75 12.582031 C 56.773438 12.5625 56.738281 12.542969 56.679688 12.542969 C 56.609375 12.542969 56.585938 12.515625 56.613281 12.46875 C 56.644531 12.417969 56.625 12.40625 56.558594 12.433594 C 56.488281 12.460938 56.449219 12.429688 56.433594 12.332031 C 56.421875 12.253906 56.375 12.199219 56.328125 12.210938 C 56.222656 12.230469 55.808594 11.785156 55.808594 11.652344 C 55.804688 11.5625 55.796875 11.5625 55.742188 11.648438 C 55.695312 11.722656 55.679688 11.710938 55.679688 11.585938 C 55.679688 11.496094 55.65625 11.453125 55.632812 11.496094 C 55.601562 11.539062 55.535156 11.515625 55.441406 11.417969 C 55.34375 11.320312 55.324219 11.261719 55.378906 11.242188 C 55.421875 11.222656 55.390625 11.207031 55.3125 11.207031 C 55.207031 11.203125 55.167969 11.160156 55.164062 11.054688 C 55.160156 10.976562 55.144531 10.949219 55.125 10.992188 C 55.105469 11.039062 54.972656 10.945312 54.777344 10.746094 C 54.464844 10.425781 54.390625 10.316406 54.542969 10.410156 C 54.601562 10.441406 54.597656 10.425781 54.539062 10.351562 C 54.492188 10.292969 54.398438 10.226562 54.328125 10.207031 C 54.261719 10.183594 54.222656 10.140625 54.242188 10.105469 C 54.261719 10.074219 54.234375 10.046875 54.179688 10.046875 C 54.125 10.046875 54.085938 10.011719 54.097656 9.96875 C 54.105469 9.925781 54.074219 9.894531 54.03125 9.902344 C 53.988281 9.914062 53.953125 9.875 53.953125 9.820312 C 53.953125 9.765625 53.925781 9.738281 53.894531 9.757812 C 53.859375 9.777344 53.816406 9.738281 53.792969 9.671875 C 53.773438 9.601562 53.707031 9.507812 53.648438 9.460938 C 53.574219 9.402344 53.558594 9.398438 53.589844 9.457031 C 53.683594 9.609375 53.574219 9.535156 53.253906 9.222656 C 53.054688 9.027344 52.960938 8.894531 53.007812 8.875 C 53.050781 8.855469 53.023438 8.839844 52.945312 8.835938 C 52.839844 8.832031 52.800781 8.792969 52.800781 8.6875 C 52.796875 8.605469 52.777344 8.574219 52.75 8.613281 C 52.71875 8.660156 52.65625 8.636719 52.5625 8.539062 C 52.464844 8.441406 52.445312 8.382812 52.5 8.363281 C 52.539062 8.34375 52.503906 8.328125 52.414062 8.324219 C 52.289062 8.320312 52.277344 8.304688 52.351562 8.257812 C 52.4375 8.203125 52.4375 8.195312 52.347656 8.191406 C 52.210938 8.191406 51.757812 7.765625 51.808594 7.683594 C 51.828125 7.644531 51.796875 7.59375 51.730469 7.570312 C 51.578125 7.511719 51.457031 7.386719 51.457031 7.289062 C 51.457031 7.246094 51.4375 7.226562 51.417969 7.25 C 51.371094 7.296875 51.199219 7.140625 51.199219 7.054688 C 51.199219 6.964844 50.972656 6.777344 50.921875 6.828125 C 50.898438 6.851562 50.878906 6.835938 50.878906 6.792969 C 50.878906 6.753906 50.835938 6.71875 50.785156 6.71875 C 50.726562 6.71875 50.6875 6.660156 50.6875 6.574219 C 50.6875 6.496094 50.664062 6.460938 50.640625 6.5 C 50.609375 6.542969 50.359375 6.335938 50.003906 5.976562 C 49.667969 5.636719 49.449219 5.371094 49.492188 5.351562 C 49.535156 5.335938 49.503906 5.320312 49.425781 5.316406 C 49.339844 5.3125 49.28125 5.269531 49.28125 5.214844 C 49.28125 5.164062 49.246094 5.121094 49.207031 5.121094 C 49.164062 5.121094 49.148438 5.101562 49.171875 5.078125 C 49.222656 5.027344 49.035156 4.800781 48.945312 4.800781 C 48.859375 4.800781 48.703125 4.628906 48.75 4.582031 C 48.773438 4.5625 48.738281 4.542969 48.679688 4.542969 C 48.609375 4.542969 48.585938 4.515625 48.613281 4.46875 C 48.644531 4.417969 48.625 4.40625 48.558594 4.433594 C 48.488281 4.460938 48.449219 4.429688 48.433594 4.332031 C 48.421875 4.253906 48.375 4.199219 48.328125 4.210938 C 48.222656 4.230469 47.808594 3.785156 47.808594 3.652344 C 47.804688 3.5625 47.796875 3.5625 47.742188 3.648438 C 47.695312 3.722656 47.679688 3.710938 47.679688 3.585938 C 47.679688 3.496094 47.65625 3.453125 47.632812 3.496094 C 47.601562 3.539062 47.535156 3.515625 47.441406 3.417969 C 47.34375 3.320312 47.324219 3.261719 47.378906 3.242188 C 47.421875 3.222656 47.390625 3.207031 47.3125 3.207031 C 47.207031 3.203125 47.167969 3.160156 47.164062 3.054688 C 47.160156 2.976562 47.144531 2.949219 47.125 2.992188 C 47.105469 3.039062 46.972656 2.945312 46.777344 2.746094 C 46.464844 2.425781 46.390625 2.316406 46.542969 2.410156 C 46.601562 2.441406 46.597656 2.425781 46.539062 2.351562 C 46.492188 2.292969 46.398438 2.226562 46.328125 2.207031 C 46.261719 2.183594 46.222656 2.140625 46.242188 2.105469 C 46.261719 2.074219 46.234375 2.046875 46.179688 2.046875 C 46.125 2.046875 46.085938 2.011719 46.097656 1.96875 C 46.105469 1.925781 46.074219 1.894531 46.03125 1.902344 C 45.988281 1.914062 45.953125 1.875 45.953125 1.820312 C 45.953125 1.765625 45.925781 1.738281 45.894531 1.757812 C 45.859375 1.777344 45.816406 1.738281 45.792969 1.671875 C 45.773438 1.601562 45.707031 1.507812 45.648438 1.460938 C 45.574219 1.402344 45.558594 1.398438 45.589844 1.457031 C 45.683594 1.609375 45.574219 1.535156 45.253906 1.222656 C 45.054688 1.027344 44.960938 0.894531 45.007812 0.875 C 45.050781 0.855469 45.023438 0.839844 44.945312 0.835938 C 44.839844 0.832031 44.796875 0.792969 44.792969 0.6875 C 44.792969 0.609375 44.777344 0.578125 44.757812 0.621094 C 44.738281 0.675781 44.679688 0.65625 44.582031 0.558594 C 44.484375 0.464844 44.460938 0.398438 44.503906 0.367188 C 44.546875 0.34375 44.507812 0.320312 44.414062 0.316406 C 44.328125 0.3125 44.292969 0.292969 44.339844 0.277344 C 44.410156 0.246094 44.164062 0.0625 44.054688 0.0625 C 44.039062 0.0625 44.035156 2.90625 44.046875 6.382812 M 21.492188 30 C 26.75 30.007812 35.332031 30.007812 40.566406 30 C 45.796875 29.992188 41.496094 29.984375 31.007812 29.984375 C 20.519531 29.984375 16.238281 29.992188 21.492188 30 M 50.398438 30.078125 C 50.46875 30.109375 50.570312 30.136719 50.625 30.136719 C 50.683594 30.136719 50.671875 30.113281 50.59375 30.078125 C 50.523438 30.050781 50.421875 30.023438 50.367188 30.023438 C 50.308594 30.023438 50.320312 30.046875 50.398438 30.078125 M 51.011719 30.324219 C 51.351562 30.539062 51.625 30.847656 51.785156 31.199219 C 51.847656 31.339844 51.902344 31.410156 51.902344 31.355469 C 51.90625 31.0625 51.066406 30.144531 50.789062 30.144531 C 50.753906 30.144531 50.855469 30.226562 51.011719 30.324219 M 52 41.953125 C 52 47.621094 52.007812 49.929688 52.015625 47.082031 C 52.023438 44.238281 52.023438 39.601562 52.015625 36.777344 C 52.007812 33.957031 52 36.285156 52 41.953125 M 37.792969 36.414062 C 37.621094 36.460938 37.617188 36.464844 37.761719 36.464844 C 37.847656 36.464844 37.992188 36.445312 38.078125 36.414062 C 38.296875 36.347656 38.0625 36.347656 37.792969 36.414062 M 36.800781 36.546875 C 36.734375 36.589844 36.769531 36.59375 36.929688 36.566406 C 37.203125 36.515625 37.257812 36.480469 37.050781 36.480469 C 36.964844 36.480469 36.851562 36.511719 36.800781 36.546875 M 25.441406 36.929688 C 25.277344 37 25.445312 37 25.664062 36.929688 C 25.792969 36.886719 25.800781 36.875 25.695312 36.875 C 25.625 36.875 25.511719 36.898438 25.441406 36.929688 M 20.828125 37.265625 L 20.574219 37.535156 L 20.847656 37.28125 C 21.101562 37.046875 21.148438 36.992188 21.101562 36.992188 C 21.089844 36.992188 20.96875 37.113281 20.828125 37.265625 M 22.308594 37.253906 C 22.410156 37.378906 22.507812 37.472656 22.523438 37.460938 C 22.539062 37.445312 22.457031 37.34375 22.335938 37.230469 L 22.121094 37.023438 L 22.308594 37.253906 M 34.992188 37.445312 C 34.792969 37.621094 34.566406 37.859375 34.488281 37.972656 C 34.390625 38.117188 34.425781 38.09375 34.601562 37.898438 C 34.734375 37.746094 34.976562 37.507812 35.136719 37.371094 C 35.292969 37.234375 35.40625 37.121094 35.390625 37.121094 C 35.371094 37.121094 35.191406 37.265625 34.992188 37.445312 M 41.152344 37.269531 C 41.152344 37.277344 41.246094 37.371094 41.359375 37.476562 L 41.566406 37.664062 L 41.378906 37.457031 C 41.203125 37.261719 41.152344 37.21875 41.152344 37.269531 M 22.589844 37.996094 C 22.574219 38.179688 22.582031 38.304688 22.613281 38.277344 C 22.640625 38.25 22.65625 38.097656 22.644531 37.945312 L 22.621094 37.664062 L 22.589844 37.996094 M 41.679688 38.207031 C 41.679688 38.367188 41.695312 38.429688 41.710938 38.351562 C 41.722656 38.273438 41.722656 38.144531 41.710938 38.0625 C 41.695312 37.984375 41.679688 38.050781 41.679688 38.207031 M 37.488281 38.382812 C 37.566406 38.398438 37.683594 38.394531 37.746094 38.378906 C 37.804688 38.363281 37.742188 38.351562 37.601562 38.351562 C 37.460938 38.351562 37.410156 38.367188 37.488281 38.382812 M 38.066406 38.382812 C 38.179688 38.398438 38.351562 38.394531 38.449219 38.382812 C 38.546875 38.367188 38.453125 38.355469 38.238281 38.355469 C 38.027344 38.355469 37.949219 38.367188 38.066406 38.382812 M 36.378906 38.863281 L 36.191406 39.070312 L 36.398438 38.882812 C 36.515625 38.78125 36.609375 38.6875 36.609375 38.675781 C 36.609375 38.625 36.554688 38.671875 36.378906 38.863281 M 34.019531 39.011719 C 33.996094 39.105469 33.988281 39.195312 34.003906 39.210938 C 34.019531 39.226562 34.050781 39.160156 34.074219 39.066406 C 34.097656 38.972656 34.105469 38.882812 34.089844 38.871094 C 34.074219 38.855469 34.042969 38.917969 34.019531 39.011719 M 40.6875 39.148438 C 40.769531 39.164062 40.882812 39.164062 40.945312 39.148438 C 41.007812 39.132812 40.941406 39.121094 40.800781 39.121094 C 40.660156 39.121094 40.609375 39.132812 40.6875 39.148438 M 18.359375 40.304688 C 18.175781 40.527344 18.097656 40.640625 18.128906 40.640625 C 18.144531 40.640625 18.238281 40.539062 18.332031 40.414062 C 18.507812 40.1875 18.527344 40.101562 18.359375 40.304688 M 33.996094 40.351562 C 33.992188 40.421875 34.019531 40.539062 34.046875 40.609375 C 34.117188 40.769531 34.117188 40.601562 34.046875 40.382812 C 34.007812 40.253906 33.996094 40.25 33.996094 40.351562 M 35.003906 42.007812 C 35.089844 42.113281 35.328125 42.269531 35.328125 42.222656 C 35.328125 42.210938 35.234375 42.132812 35.121094 42.046875 C 34.992188 41.953125 34.945312 41.9375 35.003906 42.007812 M 16.488281 42.207031 C 16.507812 42.261719 16.488281 42.355469 16.4375 42.417969 C 16.359375 42.515625 16.363281 42.519531 16.464844 42.441406 C 16.585938 42.34375 16.609375 42.203125 16.511719 42.144531 C 16.476562 42.121094 16.464844 42.148438 16.488281 42.207031 M 41.632812 42.816406 C 41.804688 42.992188 41.960938 43.136719 41.980469 43.136719 C 41.996094 43.136719 41.871094 42.992188 41.695312 42.816406 C 41.523438 42.640625 41.367188 42.496094 41.347656 42.496094 C 41.332031 42.496094 41.457031 42.640625 41.632812 42.816406 M 42.449219 44.800781 C 42.449219 44.957031 42.460938 45.023438 42.476562 44.945312 C 42.492188 44.863281 42.492188 44.734375 42.476562 44.65625 C 42.460938 44.578125 42.449219 44.640625 42.449219 44.800781 M 19.199219 45.3125 C 19.3125 45.453125 19.417969 45.566406 19.433594 45.566406 C 19.453125 45.566406 19.375 45.453125 19.265625 45.3125 C 19.152344 45.171875 19.046875 45.054688 19.027344 45.054688 C 19.011719 45.054688 19.089844 45.171875 19.199219 45.3125 M 39.789062 45.859375 C 39.691406 45.945312 39.632812 46.015625 39.664062 46.015625 C 39.695312 46.015625 39.789062 45.945312 39.871094 45.855469 C 40.0625 45.652344 40.019531 45.652344 39.789062 45.859375 M 16.246094 46.0625 C 16.0625 46.285156 15.984375 46.398438 16.015625 46.398438 C 16.035156 46.398438 16.125 46.300781 16.21875 46.175781 C 16.394531 45.949219 16.414062 45.859375 16.246094 46.0625 M 33.808594 46.304688 C 33.808594 46.445312 33.820312 46.496094 33.835938 46.414062 C 33.851562 46.335938 33.851562 46.21875 33.835938 46.160156 C 33.820312 46.097656 33.808594 46.164062 33.808594 46.304688 M 15.863281 46.574219 C 15.679688 46.796875 15.601562 46.910156 15.632812 46.910156 C 15.648438 46.910156 15.742188 46.8125 15.835938 46.6875 C 16.011719 46.460938 16.03125 46.375 15.863281 46.574219 M 13.160156 46.691406 C 13.105469 46.835938 13.109375 47.21875 13.167969 47.253906 C 13.195312 47.269531 13.214844 47.128906 13.214844 46.9375 C 13.214844 46.554688 13.214844 46.546875 13.160156 46.691406 M 33.859375 46.726562 C 33.859375 46.78125 33.921875 46.882812 34 46.949219 C 34.144531 47.070312 34.144531 47.070312 34.039062 46.945312 C 33.984375 46.875 33.921875 46.773438 33.902344 46.71875 C 33.871094 46.636719 33.867188 46.640625 33.859375 46.726562 M 41.5 47.121094 L 41.246094 47.390625 L 41.519531 47.140625 C 41.773438 46.902344 41.820312 46.847656 41.773438 46.847656 C 41.761719 46.847656 41.640625 46.96875 41.5 47.121094 M 15.480469 47.089844 C 15.292969 47.308594 15.21875 47.425781 15.25 47.425781 C 15.265625 47.425781 15.359375 47.324219 15.453125 47.199219 C 15.625 46.972656 15.648438 46.886719 15.480469 47.089844 M 34.113281 47.128906 C 34.113281 47.144531 34.199219 47.222656 34.304688 47.296875 C 34.410156 47.371094 34.496094 47.417969 34.496094 47.402344 C 34.496094 47.382812 34.410156 47.308594 34.304688 47.230469 C 34.199219 47.15625 34.113281 47.109375 34.113281 47.128906 M 24.710938 47.359375 C 24.707031 47.414062 24.777344 47.542969 24.871094 47.648438 L 25.035156 47.839844 L 24.910156 47.648438 C 24.84375 47.542969 24.769531 47.414062 24.75 47.359375 C 24.71875 47.273438 24.714844 47.273438 24.710938 47.359375 M 21.054688 47.648438 C 21.175781 47.769531 21.289062 47.871094 21.304688 47.871094 C 21.324219 47.871094 21.238281 47.769531 21.121094 47.648438 C 21 47.523438 20.886719 47.425781 20.871094 47.425781 C 20.851562 47.425781 20.9375 47.523438 21.054688 47.648438 M 31.777344 47.71875 C 31.660156 47.816406 31.636719 47.855469 31.71875 47.816406 C 31.835938 47.757812 32.054688 47.546875 31.992188 47.554688 C 31.980469 47.554688 31.882812 47.628906 31.777344 47.71875 M 39.328125 48.191406 C 39.246094 48.226562 39.234375 48.246094 39.296875 48.246094 C 39.347656 48.246094 39.449219 48.222656 39.519531 48.191406 C 39.601562 48.15625 39.613281 48.136719 39.550781 48.136719 C 39.5 48.136719 39.398438 48.160156 39.328125 48.191406 M 37.777344 48.367188 C 37.945312 48.378906 38.207031 48.378906 38.355469 48.367188 C 38.503906 48.351562 38.363281 48.34375 38.046875 48.34375 C 37.730469 48.34375 37.609375 48.355469 37.777344 48.367188 M 51.871094 52.496094 C 51.769531 52.980469 51.371094 53.472656 50.863281 53.742188 C 50.714844 53.820312 50.636719 53.886719 50.691406 53.886719 C 51.097656 53.894531 51.820312 53.101562 51.929688 52.527344 C 51.984375 52.234375 51.929688 52.207031 51.871094 52.496094 M 50.144531 53.953125 L 49.953125 54 L 50.175781 54.007812 C 50.300781 54.011719 50.441406 53.984375 50.496094 53.953125 C 50.613281 53.875 50.445312 53.875 50.144531 53.953125 "/>
<path style=" stroke:none;fill-rule:evenodd;fill:rgb(80%,83.137255%,85.882353%);fill-opacity:1;" d="M 43.96875 6.316406 C 43.96875 12.539062 43.976562 12.820312 44.167969 13.199219 C 44.199219 13.261719 44.222656 13.351562 44.222656 13.402344 C 44.222656 13.453125 44.316406 13.664062 44.425781 13.867188 C 45.097656 15.09375 46.179688 15.835938 47.550781 16.003906 L 48.027344 16.0625 L 53.984375 22.015625 C 57.257812 25.289062 59.957031 27.96875 59.984375 27.96875 C 60.089844 27.96875 60.039062 15.871094 59.933594 15.765625 C 59.878906 15.710938 59.8125 15.6875 59.789062 15.714844 C 59.765625 15.738281 59.78125 15.773438 59.824219 15.789062 C 59.867188 15.804688 59.902344 15.859375 59.902344 15.910156 C 59.902344 16.042969 48.285156 16.042969 47.519531 15.90625 C 46.652344 15.753906 45.914062 15.460938 45.597656 15.140625 C 45.546875 15.089844 45.4375 14.996094 45.359375 14.933594 C 44.925781 14.585938 44.5 13.925781 44.242188 13.199219 L 44.0625 12.703125 L 44.046875 6.382812 C 44.035156 2.90625 44.050781 0.0625 44.082031 0.0625 C 44.109375 0.0625 44.167969 0.0976562 44.210938 0.140625 C 44.261719 0.191406 44.289062 0.195312 44.289062 0.148438 C 44.289062 0.078125 44.148438 0 44.027344 0 C 43.992188 0 43.96875 2.523438 43.96875 6.316406 M 44.558594 0.535156 C 44.636719 0.617188 44.714844 0.675781 44.730469 0.664062 C 44.765625 0.632812 44.535156 0.382812 44.46875 0.382812 C 44.4375 0.382812 44.476562 0.453125 44.558594 0.535156 M 45.238281 1.207031 C 45.566406 1.527344 45.6875 1.613281 45.59375 1.464844 C 45.53125 1.363281 45.054688 0.933594 44.96875 0.902344 C 44.929688 0.886719 45.050781 1.023438 45.238281 1.207031 M 46.464844 2.390625 C 46.464844 2.410156 46.613281 2.574219 46.792969 2.761719 C 47.164062 3.144531 47.199219 3.097656 46.839844 2.703125 C 46.609375 2.453125 46.464844 2.332031 46.464844 2.390625 M 47.4375 3.414062 C 47.519531 3.5 47.597656 3.554688 47.609375 3.542969 C 47.648438 3.511719 47.414062 3.265625 47.347656 3.265625 C 47.316406 3.265625 47.355469 3.332031 47.4375 3.414062 M 47.878906 3.824219 C 48.0625 4.050781 48.265625 4.238281 48.296875 4.203125 C 48.316406 4.183594 48.230469 4.066406 48.105469 3.941406 C 47.867188 3.703125 47.726562 3.628906 47.878906 3.824219 M 50 5.972656 C 50.324219 6.300781 50.605469 6.5625 50.621094 6.546875 C 50.65625 6.515625 49.523438 5.375 49.457031 5.375 C 49.429688 5.375 49.671875 5.644531 50 5.972656 M 51.457031 7.332031 C 51.457031 7.351562 51.5 7.414062 51.550781 7.464844 C 51.65625 7.570312 51.667969 7.554688 51.609375 7.398438 C 51.574219 7.300781 51.457031 7.253906 51.457031 7.332031 M 51.777344 7.71875 C 51.777344 7.777344 52.242188 8.195312 52.273438 8.164062 C 52.304688 8.132812 51.867188 7.679688 51.808594 7.679688 C 51.792969 7.679688 51.777344 7.699219 51.777344 7.71875 M 52.558594 8.535156 C 52.636719 8.617188 52.714844 8.675781 52.730469 8.664062 C 52.765625 8.632812 52.535156 8.382812 52.46875 8.382812 C 52.4375 8.382812 52.476562 8.453125 52.558594 8.535156 M 53.238281 9.207031 C 53.566406 9.527344 53.6875 9.613281 53.59375 9.464844 C 53.53125 9.363281 53.054688 8.933594 52.96875 8.902344 C 52.929688 8.886719 53.050781 9.023438 53.238281 9.207031 M 54.464844 10.390625 C 54.464844 10.410156 54.613281 10.574219 54.792969 10.761719 C 55.164062 11.144531 55.199219 11.097656 54.839844 10.703125 C 54.609375 10.453125 54.464844 10.332031 54.464844 10.390625 M 55.4375 11.414062 C 55.519531 11.5 55.597656 11.554688 55.609375 11.542969 C 55.648438 11.511719 55.414062 11.265625 55.347656 11.265625 C 55.316406 11.265625 55.355469 11.332031 55.4375 11.414062 M 55.878906 11.824219 C 56.0625 12.050781 56.265625 12.238281 56.296875 12.203125 C 56.316406 12.183594 56.230469 12.066406 56.105469 11.941406 C 55.867188 11.703125 55.726562 11.628906 55.878906 11.824219 M 58 13.972656 C 58.324219 14.300781 58.605469 14.5625 58.621094 14.546875 C 58.65625 14.515625 57.523438 13.375 57.457031 13.375 C 57.429688 13.375 57.671875 13.644531 58 13.972656 M 50.054688 29.976562 C 50.117188 30.03125 50.621094 30.0625 50.589844 30.011719 C 50.570312 29.976562 50.433594 29.953125 50.289062 29.953125 C 50.144531 29.953125 50.039062 29.960938 50.054688 29.976562 M 51.386719 30.550781 C 51.511719 30.679688 51.621094 30.785156 51.632812 30.785156 C 51.6875 30.785156 51.410156 30.46875 51.296875 30.398438 C 51.226562 30.355469 51.265625 30.425781 51.386719 30.550781 M 51.910156 31.402344 C 51.921875 31.570312 52.023438 31.710938 52.027344 31.570312 C 52.03125 31.496094 52.003906 31.414062 51.96875 31.390625 C 51.933594 31.371094 51.90625 31.375 51.910156 31.402344 M 38.03125 36.460938 C 38.09375 36.476562 38.195312 36.476562 38.257812 36.460938 C 38.316406 36.445312 38.265625 36.429688 38.144531 36.429688 C 38.019531 36.429688 37.96875 36.445312 38.03125 36.460938 M 37.265625 36.523438 C 37.324219 36.539062 37.425781 36.539062 37.488281 36.523438 C 37.550781 36.507812 37.5 36.496094 37.375 36.496094 C 37.253906 36.496094 37.203125 36.507812 37.265625 36.523438 M 38.832031 36.523438 C 38.910156 36.539062 39.039062 36.539062 39.121094 36.523438 C 39.199219 36.511719 39.132812 36.496094 38.976562 36.496094 C 38.816406 36.496094 38.753906 36.511719 38.832031 36.523438 M 15.105469 37.214844 C 15.222656 37.339844 15.335938 37.441406 15.351562 37.441406 C 15.371094 37.441406 15.289062 37.339844 15.167969 37.214844 C 15.046875 37.09375 14.9375 36.992188 14.917969 36.992188 C 14.902344 36.992188 14.984375 37.09375 15.105469 37.214844 M 13.375 38.042969 C 13.375 38.128906 13.398438 38.214844 13.429688 38.234375 C 13.457031 38.25 13.46875 38.179688 13.453125 38.078125 C 13.417969 37.847656 13.375 37.828125 13.375 38.042969 M 24.671875 42.464844 C 24.671875 45 24.679688 46.027344 24.6875 44.746094 C 24.699219 43.46875 24.699219 41.394531 24.6875 40.140625 C 24.679688 38.882812 24.671875 39.929688 24.671875 42.464844 M 37.777344 38.316406 C 37.875 38.332031 38.019531 38.332031 38.097656 38.316406 C 38.175781 38.300781 38.097656 38.289062 37.921875 38.289062 C 37.742188 38.289062 37.679688 38.304688 37.777344 38.316406 M 34.007812 39.742188 C 34.007812 40.042969 34.015625 40.164062 34.03125 40.015625 C 34.042969 39.867188 34.042969 39.621094 34.03125 39.472656 C 34.015625 39.324219 34.007812 39.445312 34.007812 39.742188 M 35.984375 39.742188 C 35.984375 39.867188 35.996094 39.917969 36.011719 39.855469 C 36.027344 39.792969 36.027344 39.695312 36.011719 39.632812 C 35.996094 39.570312 35.984375 39.621094 35.984375 39.742188 M 17.9375 40.671875 C 18.046875 40.792969 18.050781 40.792969 18.160156 40.671875 C 18.265625 40.558594 18.265625 40.554688 18.160156 40.636719 C 18.066406 40.707031 18.027344 40.707031 17.9375 40.636719 C 17.828125 40.554688 17.828125 40.558594 17.9375 40.671875 M 42.382812 44.609375 C 42.382812 44.730469 42.394531 44.78125 42.414062 44.71875 C 42.429688 44.660156 42.429688 44.558594 42.414062 44.496094 C 42.394531 44.433594 42.382812 44.484375 42.382812 44.609375 M 27.753906 45.9375 C 28.359375 45.945312 29.367188 45.945312 29.996094 45.9375 C 30.621094 45.925781 30.128906 45.917969 28.894531 45.917969 C 27.664062 45.917969 27.152344 45.925781 27.753906 45.9375 M 38.066406 46.382812 C 38.179688 46.398438 38.351562 46.394531 38.449219 46.382812 C 38.546875 46.367188 38.453125 46.355469 38.238281 46.355469 C 38.027344 46.355469 37.949219 46.367188 38.066406 46.382812 M 22.867188 46.976562 C 22.867188 47.132812 22.878906 47.199219 22.894531 47.121094 C 22.910156 47.039062 22.910156 46.910156 22.894531 46.832031 C 22.878906 46.753906 22.867188 46.816406 22.867188 46.976562 M 41.628906 46.929688 L 41.441406 47.136719 L 41.648438 46.949219 C 41.761719 46.84375 41.855469 46.75 41.855469 46.738281 C 41.855469 46.691406 41.804688 46.734375 41.628906 46.929688 M 21.777344 47.980469 C 21.835938 47.996094 21.9375 47.996094 22 47.980469 C 22.0625 47.964844 22.011719 47.949219 21.886719 47.949219 C 21.765625 47.949219 21.714844 47.964844 21.777344 47.980469 M 51.941406 52.476562 C 51.820312 53.121094 51.335938 53.667969 50.675781 53.90625 C 50.515625 53.964844 45.875 53.992188 31.230469 54.015625 L 12 54.046875 L 11.980469 55.023438 L 11.964844 56 L 31.164062 56 C 45.390625 56 50.410156 55.980469 50.539062 55.925781 C 51.03125 55.726562 51.136719 55.664062 51.390625 55.417969 C 51.871094 54.953125 51.992188 54.582031 52.019531 53.503906 C 52.050781 52.382812 52.023438 52.042969 51.941406 52.476562 "/>
<path style=" stroke:none;fill-rule:evenodd;fill:rgb(98.431373%,98.431373%,98.431373%);fill-opacity:1;" d="M 37.023438 36.613281 C 36.515625 36.734375 36.328125 36.796875 35.828125 37.019531 C 34.75 37.492188 34.089844 38.527344 34.09375 39.742188 C 34.097656 41.539062 34.996094 42.3125 38.046875 43.144531 C 38.1875 43.179688 38.355469 43.238281 38.414062 43.269531 C 38.476562 43.300781 38.582031 43.328125 38.652344 43.328125 C 38.71875 43.328125 38.792969 43.355469 38.816406 43.390625 C 38.835938 43.425781 38.910156 43.457031 38.972656 43.457031 C 39.136719 43.457031 39.75 43.785156 40 44.007812 C 40.417969 44.382812 40.515625 44.929688 40.253906 45.445312 C 40.035156 45.875 39.847656 46.015625 39.085938 46.328125 C 38.863281 46.417969 37.460938 46.425781 37.40625 46.335938 C 37.386719 46.300781 37.292969 46.273438 37.199219 46.273438 C 37.050781 46.273438 36.800781 46.207031 36.449219 46.078125 C 36.378906 46.054688 35.980469 45.863281 35.566406 45.660156 C 34.648438 45.203125 34.316406 45.246094 34.015625 45.84375 C 33.40625 47.070312 35.320312 48.203125 38.015625 48.214844 C 40.769531 48.222656 42.519531 46.753906 42.34375 44.574219 C 42.234375 43.21875 41.511719 42.460938 39.742188 41.855469 C 39.621094 41.8125 39.460938 41.757812 39.390625 41.730469 C 39.320312 41.703125 39.132812 41.640625 38.976562 41.597656 C 38.332031 41.417969 38.234375 41.390625 38.128906 41.335938 C 38.066406 41.304688 37.960938 41.28125 37.886719 41.28125 C 37.816406 41.28125 37.707031 41.253906 37.648438 41.222656 C 37.53125 41.164062 37.25 41.042969 37.007812 40.953125 C 35.855469 40.507812 35.605469 39.457031 36.46875 38.679688 C 36.597656 38.5625 36.753906 38.464844 36.8125 38.464844 C 36.871094 38.464844 36.9375 38.4375 36.953125 38.410156 C 37.035156 38.277344 38.121094 38.203125 38.625 38.296875 C 39.21875 38.40625 39.464844 38.488281 40.09375 38.792969 C 40.730469 39.101562 41.09375 39.089844 41.386719 38.753906 C 41.953125 38.097656 41.378906 37.234375 40.128906 36.871094 C 39.96875 36.824219 39.78125 36.761719 39.710938 36.734375 C 39.640625 36.703125 39.496094 36.660156 39.390625 36.632812 C 39.09375 36.5625 37.308594 36.546875 37.023438 36.613281 M 14.15625 37.050781 C 13.421875 37.304688 13.242188 38.210938 13.824219 38.71875 C 13.84375 38.738281 13.957031 38.882812 14.078125 39.039062 C 14.203125 39.199219 14.316406 39.34375 14.335938 39.359375 C 14.363281 39.386719 14.6875 39.777344 15.039062 40.210938 C 15.09375 40.277344 15.191406 40.394531 15.253906 40.46875 C 15.320312 40.546875 15.449219 40.707031 15.542969 40.832031 C 15.636719 40.957031 15.726562 41.070312 15.746094 41.089844 C 15.898438 41.222656 16.640625 42.1875 16.640625 42.25 C 16.640625 42.3125 15.753906 43.527344 15.617188 43.648438 C 15.597656 43.664062 15.503906 43.785156 15.410156 43.914062 C 15.3125 44.042969 15.199219 44.1875 15.152344 44.234375 C 15.109375 44.28125 14.992188 44.425781 14.898438 44.554688 C 14.800781 44.683594 14.683594 44.828125 14.640625 44.875 C 14.597656 44.921875 14.429688 45.132812 14.273438 45.34375 C 14.113281 45.554688 13.933594 45.785156 13.871094 45.855469 C 13.105469 46.703125 13.078125 47.378906 13.796875 47.789062 C 14.457031 48.167969 14.722656 47.992188 15.902344 46.398438 C 16.359375 45.785156 16.75 45.265625 16.769531 45.246094 C 16.789062 45.230469 16.875 45.113281 16.960938 44.992188 C 17.042969 44.867188 17.132812 44.753906 17.152344 44.734375 C 17.171875 44.71875 17.261719 44.601562 17.34375 44.480469 C 17.429688 44.355469 17.535156 44.21875 17.578125 44.171875 C 17.625 44.128906 17.710938 44.007812 17.773438 43.902344 C 17.921875 43.648438 18.070312 43.664062 18.285156 43.949219 C 18.382812 44.082031 18.511719 44.246094 18.570312 44.320312 C 18.628906 44.390625 18.910156 44.75 19.195312 45.121094 C 19.480469 45.488281 19.75 45.835938 19.792969 45.886719 C 19.839844 45.941406 19.945312 46.085938 20.03125 46.207031 C 20.117188 46.332031 20.230469 46.476562 20.289062 46.527344 C 20.34375 46.582031 20.460938 46.726562 20.542969 46.847656 C 21.300781 47.953125 22.128906 48.191406 22.683594 47.464844 C 22.851562 47.246094 22.925781 46.65625 22.785156 46.65625 C 22.75 46.65625 22.71875 46.597656 22.71875 46.527344 C 22.71875 46.457031 22.699219 46.398438 22.667969 46.398438 C 22.640625 46.398438 22.570312 46.316406 22.507812 46.210938 C 22.445312 46.105469 22.359375 45.984375 22.316406 45.9375 C 22.269531 45.894531 21.921875 45.46875 21.542969 44.992188 C 21.160156 44.515625 20.746094 44 20.617188 43.847656 C 20.488281 43.691406 20.34375 43.503906 20.292969 43.429688 C 20.242188 43.355469 20.183594 43.28125 20.160156 43.265625 C 20.140625 43.246094 19.957031 43.027344 19.753906 42.773438 C 19.355469 42.273438 19.34375 42.191406 19.660156 41.855469 C 19.742188 41.769531 19.882812 41.59375 19.964844 41.472656 C 20.050781 41.347656 20.167969 41.203125 20.226562 41.152344 C 20.285156 41.097656 20.355469 41.007812 20.390625 40.953125 C 20.476562 40.800781 21.746094 39.230469 21.886719 39.105469 C 22.25 38.769531 22.667969 37.9375 22.535156 37.804688 C 22.496094 37.765625 22.464844 37.683594 22.464844 37.621094 C 22.464844 37.414062 22.046875 37.066406 21.738281 37.023438 C 21.328125 36.960938 21.066406 37.109375 20.628906 37.652344 C 20.425781 37.90625 20.246094 38.125 20.226562 38.144531 C 20.207031 38.160156 20.089844 38.304688 19.96875 38.464844 C 19.847656 38.621094 19.710938 38.796875 19.667969 38.847656 C 19.625 38.902344 19.292969 39.320312 18.933594 39.777344 C 18.074219 40.863281 18.015625 40.917969 17.875 40.679688 C 17.828125 40.601562 17.523438 40.226562 17.257812 39.914062 C 17.191406 39.839844 17.0625 39.675781 16.96875 39.550781 C 16.875 39.429688 16.761719 39.289062 16.71875 39.242188 C 16.675781 39.195312 16.558594 39.050781 16.464844 38.921875 C 16.367188 38.796875 16.238281 38.632812 16.179688 38.5625 C 16.121094 38.492188 15.832031 38.144531 15.539062 37.792969 C 14.839844 36.953125 14.679688 36.867188 14.15625 37.050781 M 25.484375 37.042969 C 25.339844 37.058594 25.191406 37.144531 25.019531 37.316406 L 24.769531 37.566406 L 24.769531 47.355469 L 24.964844 47.582031 C 25.277344 47.933594 25.375 47.945312 28.5 47.921875 C 31.21875 47.90625 31.335938 47.898438 31.550781 47.773438 C 32.046875 47.480469 32.210938 46.894531 31.921875 46.460938 C 31.621094 46.019531 31.652344 46.027344 29.054688 46.019531 C 27.324219 46.015625 26.695312 45.996094 26.636719 45.9375 C 26.578125 45.882812 26.558594 44.894531 26.558594 41.890625 C 26.558594 36.96875 26.554688 36.941406 25.484375 37.042969 "/>
</g>
</svg>
